<?xml version="1.0" encoding="utf-8"?>
<!-- Generator: Adobe Illustrator 25.2.1, SVG Export Plug-In . SVG Version: 6.00 Build 0)  -->
<!DOCTYPE svg PUBLIC "-//W3C//DTD SVG 1.1//EN" "http://www.w3.org/Graphics/SVG/1.1/DTD/svg11.dtd" [
	<!ENTITY ns_extend "http://ns.adobe.com/Extensibility/1.0/">
	<!ENTITY ns_ai "http://ns.adobe.com/AdobeIllustrator/10.0/">
	<!ENTITY ns_graphs "http://ns.adobe.com/Graphs/1.0/">
	<!ENTITY ns_vars "http://ns.adobe.com/Variables/1.0/">
	<!ENTITY ns_imrep "http://ns.adobe.com/ImageReplacement/1.0/">
	<!ENTITY ns_sfw "http://ns.adobe.com/SaveForWeb/1.0/">
	<!ENTITY ns_custom "http://ns.adobe.com/GenericCustomNamespace/1.0/">
	<!ENTITY ns_adobe_xpath "http://ns.adobe.com/XPath/1.0/">
]>
<svg version="1.1" id="Layer_1" xmlns:x="&ns_extend;" xmlns:i="&ns_ai;" xmlns:graph="&ns_graphs;"
	 xmlns="http://www.w3.org/2000/svg" xmlns:xlink="http://www.w3.org/1999/xlink" x="0px" y="0px" viewBox="0 0 240.94489 56.92548"
	 style="enable-background:new 0 0 240.94489 56.92548;" xml:space="preserve">
<style type="text/css">
	.st0{fill:#153E35;}
</style>
<metadata>
	<sfw  xmlns="&ns_sfw;">
		<slices></slices>
		<sliceSourceBounds  bottomLeftOrigin="true" height="16383" width="16383.0459" x="-7893" y="-8613"></sliceSourceBounds>
	</sfw>
</metadata>
<g>
	<g>
		<path class="st0" d="M16.2469,29.18628l-0.0271,0.0542c-0.01355,0.02904-1.39576,2.79347-3.30841,2.79347H8.86542
			c-0.24392,0-0.45106-0.20714-0.45106-0.45106V10.4993c0-0.24392,0.20714-0.45106,0.45106-0.45106h1.14797V9.55072h-4.3441v0.49752
			h0.49752c0.24392,0,0.45106,0.20714,0.45106,0.45106v21.0836c0,0.23811-0.25166,0.45106-0.45106,0.45106H5.66929v0.49752h7.7977
			c0.39298,0,0.78596-0.00387,0.92922,0.18584c0.08131,0.10648,0.08905,0.28845,0.01936,0.53817l-0.03485,0.12583h0.44138
			l1.92619-4.05372l0.06775-0.14132H16.2469z"/>
		<path class="st0" d="M31.68356,29.18628l-0.0271,0.0542c-0.01355,0.02904-1.39576,2.79347-3.30841,2.79347h-5.59467
			c-0.24392,0-0.45106-0.20714-0.45106-0.45106V18.34345c0-0.24392,0.20714-0.45106,0.45106-0.45106h4.24537
			c0.59431,0,1.75003,0.65433,1.75003,1.8507v0.09873h0.44719v-4.34604h-0.44719v0.09873c0,1.1654-1.15572,1.80036-1.75003,1.80036
			h-4.24537c-0.24392,0-0.45106-0.20714-0.45106-0.45106V10.4993c0-0.24392,0.20714-0.45106,0.45106-0.45106h5.14555
			c1.91264,0,3.24452,2.66763,3.25808,2.69474l0.0271,0.0542h0.46461l-1.81004-4.03823l-0.0271-0.05808h-0.46267l0.05807,0.13745
			c0.07937,0.18972,0.08324,0.33878,0.01162,0.44525c-0.19165,0.28264-0.87502,0.2807-1.20992,0.26715h-8.65335v0.49752h0.49945
			c0.19939,0,0.45106,0.21295,0.45106,0.45106v21.0836c0,0.23811-0.25167,0.45106-0.45106,0.45106h-0.49945v0.49752h8.99213
			c0.67949,0,1.0899,0.1026,1.25251,0.31361c0.07937,0.10454,0.09679,0.24005,0.05227,0.41234l-0.03485,0.12389h0.44332
			l1.82553-4.05565l0.06195-0.13938H31.68356z"/>
		<g>
			
				<rect x="17.39772" y="42.36126" transform="matrix(0.7074 0.70681 -0.70681 0.7074 36.9436 -0.69618)" class="st0" width="3.82987" height="3.82357"/>
		</g>
	</g>
	<g>
		<path class="st0" d="M52.53243,14.98855c0-3.74785,2.66473-5.82891,5.99637-5.82891c4.49607,0,7.07755,5.57919,7.41052,6.32837
			h0.50043L63.9415,8.575h-0.41718c0.08324,0.33491,0.08324,0.58463,0.08324,0.75112c0,0.41621-0.16649,0.66594-0.41621,0.66594
			c-0.49945,0-1.66485-1.24864-4.74579-1.24864c-4.49704,0-8.32813,2.33079-8.32813,7.24404
			c0,9.66001,16.4888,11.15837,16.4888,21.56757c0,6.24513-4.66352,10.40919-9.74325,10.40919
			c-5.32946-0.08324-10.37169-3.52075-10.37169-8.38415c0.00012-1.48518,0.31083-2.68046,0.73817-3.63533v-1.37302
			c-0.96891,1.4726-1.44162,3.25771-1.44162,4.98112c0,4.58028,4.49606,8.91082,11.07513,8.91082
			c6.82782,0,12.40798-4.99649,12.40798-11.65783C69.27097,24.81504,52.53243,23.89744,52.53243,14.98855z"/>
		<path class="st0" d="M81.12908,46.79833h0.66594v0.49946H75.9661v-0.49946h0.66595c0.41621,0,0.91566-0.41621,0.91566-0.91663
			V10.74076c0-0.49946-0.41621-0.91567-0.91566-0.91567H75.9661V9.32563h5.82892v0.49946h-0.66594
			c-0.5014,0-0.9176,0.41621-0.9176,0.91567v16.90501c0.08324,0.41621,0.41621,0.74918,0.9176,0.74918h16.8208
			c0.5827,0,0.91567-0.33297,0.91567-0.91567V10.74076c0-0.49946-0.49946-0.91567-0.91567-0.91567h-0.66594V9.32563h5.82891v0.49946
			h-0.66594c-0.50139,0-0.9176,0.41621-0.9176,0.91567V45.8817c0,0.50042,0.41621,0.91663,0.9176,0.91663h0.66594v0.49946h-5.82891
			v-0.49946h0.66594c0.41621,0,0.91567-0.41621,0.91567-0.91663V29.81008c0-0.5827-0.33298-0.91567-0.91567-0.91567h-16.8208
			c-0.5014,0-0.9176,0.41621-0.9176,0.91567V45.8817C80.21148,46.38212,80.62769,46.79833,81.12908,46.79833z"/>
		<path class="st0" d="M130.29002,8.65873c11.49135,0,20.6519,8.82758,20.6519,19.81947s-9.16055,19.73526-20.6519,19.73526
			s-20.56865-8.74337-20.56865-19.73526S118.79868,8.65873,130.29002,8.65873z M130.29002,47.714
			c9.66,0,17.65517-8.57689,17.65517-19.2358s-7.99516-19.31905-17.65517-19.31905s-17.56998,8.66013-17.56998,19.31905
			S120.63002,47.714,130.29002,47.714z"/>
		<path class="st0" d="M167.20851,9.32563h-9.65808v0.49946h0.66594c0.49947,0,0.91568,0.41621,0.91568,0.91567V45.8817
			c0,0.50042-0.49947,0.91663-0.91568,0.91663h-0.66594v0.49946h5.82892v-0.49946h-0.66594
			c-0.50139,0-0.9176-0.41621-0.9176-0.91663V10.74076c0-0.49946,0.41621-0.91567,0.9176-0.91567h4.4951
			c6.24706,0,9.16055,4.91325,9.16055,9.99298c0,5.1176-2.77943,10.29993-7.93974,10.55172
			c0.00533,0.06086-6.53621,0.07327-7.13799,0.07327c-0.06184,0,0.00938,0.10676,0.00938,0.48975
			c1.05841,0.03052,4.06326-0.04579,7.10754-0.04579c7.24452,0.04658,10.87622-5.66666,10.87622-11.1522
			C179.28448,14.48861,175.53664,9.32563,167.20851,9.32563z"/>
		<path class="st0" d="M195.83881,9.32563h-9.65808v0.49946h0.66594c0.49947,0,0.91568,0.41621,0.91568,0.91567V45.8817
			c0,0.50042-0.49947,0.91663-0.91568,0.91663h-0.66594v0.49946h5.82892v-0.49946h-0.66594
			c-0.50139,0-0.9176-0.41621-0.9176-0.91663V10.74076c0-0.49946,0.41621-0.91567,0.9176-0.91567h4.4951
			c6.24706,0,9.16055,4.91325,9.16055,9.99298c0,5.1176-2.77943,10.29993-7.93974,10.55172
			c0.00533,0.06086-6.53621,0.07327-7.13799,0.07327c-0.06184,0,0.00938,0.10676,0.00938,0.48975
			c1.05841,0.03052,4.06328-0.04579,7.10754-0.04579c7.24452,0.04658,10.87622-5.66666,10.87622-11.1522
			C207.91478,14.48861,204.16693,9.32563,195.83881,9.32563z"/>
		<path class="st0" d="M218.73647,10.74076v10.74216c0,0.50042,0.41621,0.91664,0.91566,0.91664h7.07756
			c1.00084,0,3.08191-1.08312,3.08191-3.16515h0.41621v6.91203h-0.41621c0-2.16527-2.08107-3.24743-3.08191-3.24743h-7.07756
			c-0.49945,0-0.91566,0.41621-0.91566,0.91567V45.8817c0,0.50042,0.41621,0.91663,0.91566,0.91663h9.32704
			c3.3297,0,5.66243-4.74676,5.66243-4.74676h0.41621l-2.99867,6.66231h-0.41621c0.33298-1.2496-1.16539-1.41609-2.3308-1.41609
			h-14.82297v-0.49946h0.66594c0.41621,0,0.91566-0.41621,0.91566-0.91663V10.74076c0-0.49946-0.49945-0.91567-0.91566-0.91567
			h-0.66594V9.32563h14.07379c0.66594,0,2.99673,0.16649,2.3308-1.41609h0.41621l2.91542,6.49582h-0.41621
			c0,0-2.24948-4.58028-5.57918-4.58028h-8.57787C219.15268,9.82509,218.73647,10.2413,218.73647,10.74076z"/>
	</g>
</g>
</svg>
