<svg id="Logo" xmlns="http://www.w3.org/2000/svg" width="122.616" height="24" viewBox="0 0 122.616 24">
  <path id="Path_1" data-name="Path 1" d="M5723.647,7250.707a6.038,6.038,0,0,1,5.33,2.845h5.657c-.523-2.648-3.466-7.847-10.987-7.847-6.965,0-11.9,5.068-11.9,12s4.937,12,11.9,12c7.815,0,10.562-5.526,10.987-7.848h-5.624a5.782,5.782,0,0,1-5.363,2.845c-3.858,0-6.212-3.172-6.212-7S5719.79,7250.707,5723.647,7250.707Z" transform="translate(-5711.746 -7245.705)"/>
  <path id="Path_2" data-name="Path 2" d="M5799.354,7246.915l-10.168,23.248h5.591l1.733-4.022h11.052l1.733,4.022h5.885l-10.137-23.248Zm-.85,14.583,3.531-8.207,3.531,8.207Z" transform="translate(-5766.167 -7246.555)"/>
  <path id="Path_3" data-name="Path 3" d="M5893.176,7247.025h-9.613v23.215h9.613c7.423,0,12.72-4.153,12.72-11.608C5905.9,7251.014,5900.6,7247.025,5893.176,7247.025Zm-.1,18.441h-3.957V7251.8h3.957c4.284,0,7.161,2.354,7.161,6.833C5900.24,7262.949,5897.362,7265.466,5893.079,7265.466Z" transform="translate(-5832.49 -7246.633)"/>
  <path id="Path_4" data-name="Path 4" d="M5991.349,7254.316c0-4.84-3.139-7.292-8.272-7.292h-13.6v23.215h5.559v-8.829h6.376l4.9,8.829h5.853l-5.231-9.45A6.4,6.4,0,0,0,5991.349,7254.316Zm-8.861,2.419h-7.455V7251.8h7.455c2.093,0,3.172.719,3.172,2.518C5985.66,7255.918,5984.614,7256.736,5982.488,7256.736Z" transform="translate(-5892.864 -7246.633)"/>
  <path id="Path_5" data-name="Path 5" d="M6060.173,7265.434v-4.971h8.272v-4.675h-8.272V7251.6h13.864v-4.578h-19.422v23.216h20.7v-4.807Z" transform="translate(-5952.696 -7246.633)"/>
</svg>
