<svg id="Mouse" xmlns="http://www.w3.org/2000/svg" width="20.399" height="24" viewBox="0 0 20.399 24">
  <path id="Path_2024" data-name="Path 2024" d="M1547.506,75.826v-4.8h-1.2v-1.2h-1.2v3.6h-1.2v-4.8h-2.4v4.8h-1.2v-4.8h-2.4v4.8h-1.2v-10.8h-2.4v12h-1.2v-1.2h-1.2v-1.2h-2.4v2.4h1.2v1.2h1.2v1.2h1.2v2.4h1.2v2.4h1.2v2.4h9.6v-2.4h1.2v-3.6h1.2v-2.4Zm-9.534,1.2v2.4h-1.2V75.832h1.2Zm3.534,0v2.4h-1.2V75.832h1.2Zm3.534,0v2.4h-1.2V75.832h1.2Z" transform="translate(-1528.306 -61.426)" fill="#fff"/>
  <g id="Group_7" data-name="Group 7">
    <path id="Path_2025" data-name="Path 2025" d="M1577.55,281.234h-1.2v2.4h1.2v-2.4Z" transform="translate(-1571.55 -263.234)"/>
    <path id="Path_2026" data-name="Path 2026" d="M1561.936,250h-1.2v2.4h1.2V250Z" transform="translate(-1557.135 -234.404)"/>
    <path id="Path_2027" data-name="Path 2027" d="M1624.054,235.663v2.4h1.2v-3.594h-1.2Z" transform="translate(-1615.588 -220.063)"/>
    <path id="Path_2028" data-name="Path 2028" d="M1670.039,235.663v2.4h1.2v-3.594h-1.2Z" transform="translate(-1658.039 -220.063)"/>
    <path id="Path_2029" data-name="Path 2029" d="M1716.024,235.663v2.4h1.2v-3.594h-1.2Z" transform="translate(-1700.49 -220.063)"/>
    <rect id="Rectangle_2489" data-name="Rectangle 2489" width="1.2" height="1.2" transform="translate(2.4 14.4)"/>
    <rect id="Rectangle_2490" data-name="Rectangle 2490" width="1.2" height="1.2" transform="translate(1.2 13.2)"/>
    <path id="Path_2030" data-name="Path 2030" d="M1515.091,173.13h2.4v-1.2h-3.6v3.6h1.2v-2.4Z" transform="translate(-1513.891 -162.33)"/>
    <path id="Path_2031" data-name="Path 2031" d="M1561.936,73.426v1.2h1.2v-12h-1.2v9.6h-1.2v1.2Z" transform="translate(-1557.135 -61.426)"/>
    <path id="Path_2032" data-name="Path 2032" d="M1716.884,143.1v2.4h1.2v-3.6h1.2v-1.2h-2.4v2.4Z" transform="translate(-1701.283 -133.5)"/>
    <rect id="Rectangle_2491" data-name="Rectangle 2491" width="1.2" height="1.2" transform="translate(18 8.4)"/>
    <path id="Path_2033" data-name="Path 2033" d="M1763.729,171.93v7.2h1.2v-7.2Z" transform="translate(-1744.529 -162.33)"/>
    <path id="Path_2034" data-name="Path 2034" d="M1748.113,266.819v2.4h1.2v-3.6h-1.2Z" transform="translate(-1730.113 -248.819)"/>
    <path id="Path_2035" data-name="Path 2035" d="M1602.765,313.664v1.2h-9.6v-2.4h-1.2v3.6h12v-3.6h-1.2Z" transform="translate(-1585.965 -292.064)"/>
    <path id="Path_2036" data-name="Path 2036" d="M1623.194,65.026v8.4h1.2v-4.8h2.4v4.8h1.2v-4.8h2.4v-1.2h-6v-4.8h-1.2v2.4Z" transform="translate(-1614.795 -61.426)"/>
    <path id="Path_2037" data-name="Path 2037" d="M1594.365,48.211v-1.2h-2.4v1.2h2.4Z" transform="translate(-1585.965 -47.011)"/>
  </g>
</svg>
